# xmcd
#
# Track frame offsets:
#	150
#	12497
#	24340
#	36340
#	46420
#	58560
#	69725
#	78715
#	89682
#	102067
#	114577
#	124795
#	135447
#	143357
#
# Disc length: 2022
#
# Revision: 2
# Processed by: cddbd v1.5.1PL0 Copyright (c) Steve Scherf et al.
# Submitted via: audiograbber 1.83.01
# Normalized: r1:DSETVAR2
#
DISCID=bb07e40e
DTITLE=Various Artist - Country and western
DYEAR=1900
DGENRE=Country
TTITLE0=Faron Young - I can't stop loving you
TTITLE1=Jerry Lee Lewis - What's made milwaukee famous has made a loser out of me
TTITLE2=Rex Allen - Only the hangman
TTITLE3=Dave Dudley - Six days on the road
TTITLE4=Roy Drusky - Detroit city
TTITLE5=Roger Miller - King of the road
TTITLE6=George Jones - Singing the blues
TTITLE7=Roy Drusky and Priscilla Mitchell - I'll take my chances with you
TTITLE8=Tom T. Hall - I washed my face in the morning dew
TTITLE9=Lester Flatt and Earl Scruggs - No mother or dad
TTITLE10=Rusty Draper - Mule skinner blues
TTITLE11=Jerry Lee Lewis and Linda Gail Lewis - Jackson
TTITLE12=Roger Miller - Do wacka doo
TTITLE13=Roger Miller - England swings
EXTD=
EXTT0=
EXTT1=
EXTT2=
EXTT3=
EXTT4=
EXTT5=
EXTT6=
EXTT7=
EXTT8=
EXTT9=
EXTT10=
EXTT11=
EXTT12=
EXTT13=
PLAYORDER=
